# xmcd
#
# Track frame offsets: 
#        150
#        14405
#        29630
#        42617
#        53916
#        72691
#        86113
#        103375
#        114772
#        129327
#
# Disc length: 2024 seconds
#
# Revision: 0
# Processed by: cddbd v1.5.2PL0 Copyright (c) Steve Scherf et al.
# Submitted via: ExactAudioCopyFreeDBPlugin 1.0
#
DISCID=9207e60a
DTITLE=Mudzilla - Zooziana
DYEAR=2003
DGENRE=Blues
TTITLE0=Hang over
TTITLE1=Alll for You
TTITLE2=Lagniappe Way
TTITLE3=Tell me
TTITLE4=4 a.m.
TTITLE5=Conifed
TTITLE6=Ain´t got nothing
TTITLE7=Never fall in Love
TTITLE8=Zooziana
TTITLE9=Big Easy
EXTD=
EXTT0=
EXTT1=
EXTT2=
EXTT3=
EXTT4=
EXTT5=
EXTT6=
EXTT7=
EXTT8=
EXTT9=
PLAYORDER=
